<svg width="34" height="21" viewBox="0 0 34 21" fill="none" xmlns="http://www.w3.org/2000/svg">
<path fill-rule="evenodd" clip-rule="evenodd" d="M17.0145 13.2408C21.0055 13.2408 23.8429 15.4073 24.5857 18.5931L24.6331 18.8119C24.7858 19.5715 24.3096 20.3143 23.5695 20.471C23.4785 20.4903 23.3858 20.5 23.2929 20.5H10.6163C9.84899 20.5 9.22699 19.8617 9.22699 19.0743C9.22699 18.9963 9.23323 18.9185 9.24561 18.8417L9.26878 18.7273C10.0397 15.575 12.9327 13.2408 17.0145 13.2408ZM7.08646 13.3946C8.17437 13.3946 9.16818 13.9611 9.16818 13.9611C9.47072 14.0988 9.61221 14.4798 9.48421 14.812C9.46336 14.8661 9.436 14.9169 9.40296 14.9629L9.33233 15.0463C8.69102 15.7424 8.24412 16.536 7.88803 17.482L7.79205 17.7512L7.74324 17.9119C7.70017 18.0771 7.67391 18.2066 7.65683 18.3278L7.64254 18.4473C7.63372 18.5361 7.62864 18.6244 7.62716 18.712L7.62764 18.8428C7.63726 19.2411 7.35006 19.5748 6.98617 19.5883C6.95652 19.5893 6.92685 19.5882 6.89736 19.585L1.51721 19.5883C0.909066 19.5206 0.469716 18.9256 0.535892 18.2594C0.542447 18.1934 0.55393 18.1281 0.570201 18.0642L0.59818 17.9694C1.47416 15.3699 3.45301 13.3946 7.08646 13.3946ZM26.9133 13.3946C30.417 13.3946 32.3822 15.2313 33.3035 17.6933L33.4016 17.9694L33.4296 18.0642C33.4458 18.1281 33.4573 18.1934 33.4639 18.2594C33.5245 18.8701 33.1604 19.421 32.6309 19.5606L32.4826 19.5883L27.1024 19.585C27.0729 19.5882 27.0433 19.5893 27.0136 19.5883C26.6901 19.5763 26.4273 19.3113 26.3796 18.9728L26.3721 18.8428L26.3726 18.712L26.3677 18.5801L26.3429 18.3278C26.3316 18.247 26.3161 18.1625 26.2943 18.0662L26.2565 17.9119L26.2077 17.7512L26.1117 17.482C25.8065 16.6711 25.4346 15.9722 24.9307 15.3508L24.5968 14.9629C24.5638 14.9169 24.5364 14.8661 24.5156 14.812C24.4036 14.5213 24.4979 14.1933 24.7259 14.0236L24.8316 13.9611C24.8316 13.9611 25.8122 13.3946 26.9133 13.3946ZM7.43468 2.94383C8.61431 3.24028 9.7347 4.23646 9.669 6.5761L9.65973 6.79251C9.62761 6.84428 10.0678 7.0557 10.0678 7.7363C10.0678 8.19003 9.93179 8.49885 9.65973 8.66277C9.16117 10.9426 8.12253 12.0826 6.54384 12.0826C4.96514 12.0826 3.83538 10.9426 3.15457 8.66277C2.89879 8.54517 2.77091 8.23634 2.77091 7.7363C2.77091 7.23625 2.89879 6.92165 3.15457 6.79251C3.18179 4.90185 3.59246 3.82258 4.38659 3.5547C4.70183 3.44902 5.00007 3.44902 5.28133 3.5547C5.56578 2.85817 6.28357 2.65455 7.43468 2.94383ZM26.565 2.94383C27.7162 2.65455 28.4339 2.85817 28.7184 3.5547C28.9997 3.44902 29.2979 3.44902 29.6131 3.5547C30.4073 3.82258 30.8179 4.90185 30.8452 6.79251C31.1009 6.92165 31.2288 7.23625 31.2288 7.7363C31.2288 8.23634 31.1009 8.54517 30.8452 8.66277C30.1643 10.9426 29.0346 12.0826 27.4559 12.0826C25.8772 12.0826 24.8386 10.9426 24.34 8.66277C24.0679 8.49885 23.9319 8.19003 23.9319 7.7363C23.9319 7.12376 24.2885 6.89125 24.3364 6.81314L24.34 6.79251L24.3307 6.5761C24.265 4.23646 25.3854 3.24028 26.565 2.94383ZM21.5002 2.96547C22.4931 4.75711 22.6774 6.94556 22.0531 9.53081C22.0078 9.79927 22.1713 10.0148 22.5436 10.1773L22.6535 10.2181C22.7915 10.2634 22.8684 10.4174 22.8252 10.5621C22.8129 10.6032 22.7917 10.6404 22.7635 10.671L22.7164 10.7114C22.1017 11.1237 20.3282 11.1542 19.2992 10.9406C18.6192 11.7019 17.8758 12.0826 17.0692 12.0826C16.2626 12.0826 15.5111 11.7019 14.8146 10.9406C12.8661 10.7775 11.8918 9.24627 11.8918 6.34693C11.8918 3.69257 12.9084 1.94806 14.9416 1.11338C15.2922 0.969476 15.677 0.945261 16.0415 1.04418L16.3112 1.11741C18.1983 -0.116714 19.928 0.499307 21.5002 2.96547Z" fill="#979797"/>
</svg>
