<svg width="28" height="29" viewBox="0 0 28 29" fill="none" xmlns="http://www.w3.org/2000/svg">
<path fill-rule="evenodd" clip-rule="evenodd" d="M14 26.8333C21.732 26.8333 28 20.8265 28 13.4167C28 6.00685 21.732 0 14 0C6.26801 0 0 6.00685 0 13.4167C0 15.4124 0.513554 17.5099 1.54066 19.7091L1.76861 20.1819C2.54047 21.7346 2.58157 23.5502 1.88077 25.1362C1.23087 26.607 1.12027 27.521 1.54895 27.8783C2.01843 28.2695 3.37003 27.9644 5.60376 26.9629L6.20648 26.6858C7.36092 26.1429 8.65867 25.9947 9.90088 26.2586L10.2102 26.3331C11.4447 26.6666 12.7079 26.8333 14 26.8333Z" fill="#A4AAB2"/>
</svg>
